Coordinates
version=1
nRows=7
nColumns=40
inDegrees=yes

Units are S.I. units (second, meters, Newtons, ...)
Angles are in degrees.

endheader
time	pelvis_tilt	pelvis_list	pelvis_rotation	pelvis_tx	pelvis_ty	pelvis_tz	hip_flexion_r	hip_adduction_r	hip_rotation_r	knee_angle_r	knee_angle_r_beta	ankle_angle_r	subtalar_angle_r	mtp_angle_r	hip_flexion_l	hip_adduction_l	hip_rotation_l	knee_angle_l	knee_angle_l_beta	ankle_angle_l	subtalar_angle_l	mtp_angle_l	lumbar_extension	lumbar_bending	lumbar_rotation	arm_flex_r	arm_add_r	arm_rot_r	elbow_flex_r	pro_sup_r	wrist_flex_r	wrist_dev_r	arm_flex_l	arm_add_l	arm_rot_l	elbow_flex_l	pro_sup_l	wrist_flex_l	wrist_dev_l
     55.52000000	     -4.95496947	     -4.72766354	      3.07848798	      0.96246657	      0.93066200	      0.41734922	     34.45664612	     -7.82688770	     -5.82297058	     73.19425862	     73.19425862	     -2.60621760	    -11.63332934	     -2.60929113	     17.76288837	     -4.72785612	     -9.24597180	     23.73492396	     23.73492396	     15.07120815	     -2.89896741	      1.24225295	    -11.82688348	      4.48033989	      2.28403199	      9.68573691	    -14.04028367	    -10.07316549	     39.69833121	     45.03028245	      0.00000000	      0.00000000	     15.17840747	    -13.17125028	      2.50049916	     53.44228702	     45.91664530	      0.00000000	      0.00000000
     55.53150000	     -4.87964008	     -4.68003118	      3.13885869	      0.96159087	      0.93138712	      0.41701927	     35.44143277	     -7.71797564	     -5.74134896	     71.68222400	     71.68222400	     -2.39183335	    -11.06290645	     -2.82482200	     16.75666043	     -4.66708966	     -9.46791703	     23.02882775	     23.02882775	     15.37306687	     -2.30369034	      1.16044360	    -12.05746241	      4.31799852	      2.39809486	      7.53596346	    -14.11360805	     -9.99218531	     37.89430554	     45.09577091	      0.00000000	      0.00000000	     16.98016390	    -13.28872982	      2.48550771	     54.79246595	     45.96428084	      0.00000000	      0.00000000
     55.54300000	     -4.85766201	     -4.68889509	      3.22880372	      0.96068914	      0.93176312	      0.41669202	     36.36461706	     -7.61415632	     -5.76541878	     70.01510467	     70.01510467	     -2.22547826	    -10.38659438	     -3.06588404	     15.97096488	     -4.68749309	     -9.65284375	     22.60710828	     22.60710828	     15.72558450	     -1.71095046	      0.88047458	    -12.16273947	      4.24312778	      2.48764877	      5.62743500	    -14.09344350	    -10.01670810	     35.51552838	     45.19768508	      0.00000000	      0.00000000	     18.70201007	    -13.52140053	      2.86036187	     56.38591085	     45.98976255	      0.00000000	      0.00000000
     55.55450000	     -4.84785760	     -4.71604354	      3.32976325	      0.95983989	      0.93209361	      0.41644301	     37.14068236	     -7.47607444	     -5.80261639	     68.10133262	     68.10133262	     -2.12060910	     -9.84650740	     -3.21522182	     15.17858181	     -4.73471235	     -9.85503487	     22.11750737	     22.11750737	     15.95523742	     -1.10108725	      0.33514779	    -12.22810851	      4.16110506	      2.08146932	      4.92942687	    -13.69756113	    -10.77520019	     31.00902702	     45.48858715	      0.00000000	      0.00000000	     19.97642476	    -14.57080799	      4.49669739	     58.43807341	     45.98761110	      0.00000000	      0.00000000
     55.56600000	     -4.82686642	     -4.68572936	      3.40418647	      0.95910903	      0.93236818	      0.41613880	     37.76287013	     -7.38959798	     -5.78611963	     65.95441561	     65.95441561	     -1.92997490	     -9.31368264	     -2.96253004	     14.33882669	     -4.67366397	     -9.93634504	     21.56992829	     21.56992829	     16.25781507	     -0.72621795	      0.19344784	    -12.36395202	      4.06898145	      2.15666431	      2.93273886	    -13.66349881	    -10.95776411	     29.38642657	     45.56994590	      0.00000000	      0.00000000	     21.56383668	    -14.62088463	      4.36565184	     59.88825731	     46.05291350	      0.00000000	      0.00000000
     55.57750000	     -4.80481039	     -4.66723650	      3.47056657	      0.95848566	      0.93259703	      0.41592451	     38.20695801	     -7.27824507	     -5.79231618	     63.49251553	     63.49251553	     -1.77391420	     -8.94819457	     -2.59392707	     13.47911018	     -4.62926808	    -10.00651454	     20.99304883	     20.99304883	     16.55462029	     -0.33961326	      0.02975650	    -12.45688767	      4.00735862	      2.12576875	      1.05602942	    -13.61115660	    -11.10783756	     27.85282627	     45.64374784	      0.00000000	      0.00000000	     22.99475273	    -14.75136768	      4.37040134	     61.29934295	     46.09813504	      0.00000000	      0.00000000
     55.58900000	     -4.82761409	     -4.61758366	      3.54068098	      0.95795187	      0.93262806	      0.41568012	     38.53006637	     -7.20213953	     -5.80679388	     60.72607255	     60.72607255	     -1.56495981	     -8.78265356	     -2.18257342	     12.66854150	     -4.54092733	    -10.07882606	     20.41742879	     20.41742879	     16.81025690	      0.03297470	     -0.16993269	    -12.50964565	      3.92476583	      2.07243333	     -0.76072461	    -13.52691688	    -11.28579809	     26.36476160	     45.71965338	      0.00000000	      0.00000000	     24.29778404	    -14.93784936	      4.46688967	     62.79324204	     46.13561314	      0.00000000	      0.00000000
